<?xml version="1.0" encoding="UTF-8"?>
<svg version="1.1" xmlns="http://www.w3.org/2000/svg" width="500" height="500">
<path d="M0 0 C1.38791245 -0.00262848 1.38791245 -0.00262848 2.80386353 -0.00531006 C5.87243507 -0.00972333 8.94094932 -0.00679265 12.00952148 -0.00341797 C14.13419099 -0.0040911 16.25886042 -0.0050612 18.38352966 -0.00631714 C22.83984102 -0.00779335 27.29613237 -0.00564178 31.75244141 -0.00097656 C37.47838462 0.00472413 43.20428101 0.00143907 48.93022251 -0.00454903 C53.31809343 -0.00815374 57.70595314 -0.00701653 62.09382439 -0.00442123 C64.20585066 -0.0037519 66.31787793 -0.00458062 68.42990303 -0.00690079 C71.3751713 -0.00942622 74.32036251 -0.00558843 77.265625 0 C78.58799919 -0.00303635 78.58799919 -0.00303635 79.93708801 -0.00613403 C85.95385215 0.01513145 85.95385215 0.01513145 87.06811523 1.12939453 C87.16123413 2.63358192 87.18557551 4.14210809 87.18164062 5.64916992 C87.18156509 6.61009048 87.18148956 7.57101105 87.18141174 8.56105042 C87.17625046 9.60583054 87.17108917 10.65061066 87.16577148 11.72705078 C87.16364906 13.32304359 87.16364906 13.32304359 87.16148376 14.95127869 C87.15586587 18.36484536 87.14331034 21.77834753 87.13061523 25.19189453 C87.12560254 27.4998363 87.12103923 29.80777908 87.11694336 32.11572266 C87.10589063 37.7869688 87.0891351 43.45817706 87.06811523 49.12939453 C86.40811523 49.12939453 85.74811523 49.12939453 85.06811523 49.12939453 C84.82448242 49.69142578 84.58084961 50.25345703 84.32983398 50.83251953 C82.82630587 53.56959238 81.00111775 55.58735394 78.88061523 57.87939453 C78.08139648 58.75208984 77.28217773 59.62478516 76.45874023 60.52392578 C75.66983398 61.38373047 74.88092773 62.24353516 74.06811523 63.12939453 C72.75002127 64.60357857 71.4368972 66.08223373 70.13061523 67.56689453 C69.5853418 68.18435547 69.04006836 68.80181641 68.47827148 69.43798828 C66.88689484 71.28556959 66.88689484 71.28556959 65.06811523 74.12939453 C64.40811523 74.12939453 63.74811523 74.12939453 63.06811523 74.12939453 C62.72780273 75.21220703 62.72780273 75.21220703 62.38061523 76.31689453 C60.78087672 79.74490564 58.80940584 81.50729047 56.06811523 84.12939453 C53.9717007 86.51552471 51.89919227 88.92012068 49.83764648 91.33642578 C48.96172852 92.22394531 48.96172852 92.22394531 48.06811523 93.12939453 C47.40811523 93.12939453 46.74811523 93.12939453 46.06811523 93.12939453 C45.73811523 76.29939453 45.40811523 59.46939453 45.06811523 42.12939453 C32.85811523 41.79939453 20.64811523 41.46939453 8.06811523 41.12939453 C6.90698805 63.09405044 6.78465276 75.36929292 20.06811523 93.12939453 C21.05811523 94.61439453 21.05811523 94.61439453 22.06811523 96.12939453 C20.40237669 97.79513308 18.38220563 97.30536964 16.09057617 97.35058594 C15.02217499 97.37371353 13.9537738 97.39684113 12.85299683 97.42066956 C11.09549606 97.45051186 11.09549606 97.45051186 9.30249023 97.48095703 C8.09319855 97.50451767 6.88390686 97.52807831 5.63796997 97.55235291 C2.37150703 97.61348628 -0.89498284 97.66944933 -4.16159821 97.72172928 C-6.17243518 97.75424174 -8.18323225 97.78865225 -10.19403076 97.82345581 C-28.80308441 98.14073501 -47.34766146 98.27820901 -65.93188477 97.12939453 C-65.93188477 93.75671753 -65.26289392 92.53667025 -63.65844727 89.62158203 C-63.16900635 88.72681152 -62.67956543 87.83204102 -62.17529297 86.91015625 C-61.64121826 85.95125488 -61.10714355 84.99235352 -60.55688477 84.00439453 C-60.00669678 83.00811035 -59.45650879 82.01182617 -58.88964844 80.98535156 C-54.05659373 72.27257355 -49.0735552 63.66306132 -43.93188477 55.12939453 C-43.27430176 54.0365918 -42.61671875 52.94378906 -41.93920898 51.81787109 C-39.6916353 48.08542979 -37.4374446 44.35701349 -35.18188477 40.62939453 C-34.81753326 40.02625427 -34.45318176 39.42311401 -34.07778931 38.80169678 C-30.2281519 32.43423302 -26.34209101 26.10886549 -22.1496582 19.95922852 C-20.65486923 17.71314925 -19.3201326 15.38519424 -18.00219727 13.03173828 C-16.62883805 10.5907677 -15.22515509 8.16956501 -13.80688477 5.75439453 C-13.30930664 4.90103516 -12.81172852 4.04767578 -12.29907227 3.16845703 C-9.38338352 -1.18008447 -4.73050569 -0.01088687 0 0 Z " fill="#030203" transform="translate(272.931884765625,141.87060546875)"/>
<path d="M0 0 C6.9063908 -0.04329986 13.81273499 -0.07058701 20.71923828 -0.08789062 C21.86667511 -0.09093201 23.01411194 -0.09397339 24.19631958 -0.09710693 C27.4956617 -0.10282559 30.79489679 -0.10071368 34.09423828 -0.09570312 C35.59101357 -0.09863373 35.59101357 -0.09863373 37.11802673 -0.10162354 C38.04603592 -0.09854187 38.9740451 -0.09546021 39.93017578 -0.09228516 C40.7376123 -0.09148956 41.54504883 -0.09069397 42.37695312 -0.08987427 C44.90132149 0.04698076 47.25476323 0.48623194 49.71923828 1.03710938 C48.16174274 5.27606631 46.08030414 9.12842294 43.84423828 13.03710938 C43.26029297 14.0656604 43.26029297 14.0656604 42.66455078 15.11499023 C41.81089515 16.61705734 40.95568195 18.11824006 40.09912109 19.61865234 C38.14484304 23.04382545 36.20124214 26.47504239 34.25585938 29.90527344 C32.72555788 32.5885285 31.17597748 35.26001332 29.62548828 37.93164062 C27.77380066 41.13653095 26.02692429 44.36163811 24.37548828 47.67382812 C23.82441406 48.72364868 23.82441406 48.72364868 23.26220703 49.79467773 C22.59317978 51.07275157 21.95687696 52.36881175 21.36376953 53.68383789 C20.43798828 55.39648438 20.43798828 55.39648438 17.71923828 58.03710938 C13.75799968 59.13433505 9.80905014 59.02944864 5.71923828 59.03710938 C4.05126311 59.05591698 2.38329471 59.07533024 0.71533203 59.09521484 C-5.03369874 59.14561236 -10.78165018 59.12463014 -16.53076172 59.09960938 C-18.54768769 59.09458408 -20.56461487 59.090023 -22.58154297 59.0859375 C-27.48131294 59.07501405 -32.38102368 59.05780621 -37.28076172 59.03710938 C-38.28076172 56.03710938 -38.28076172 56.03710938 -36.62841797 52.68164062 C-35.87887899 51.39711198 -35.11454522 50.12120061 -34.34326172 48.84960938 C-33.00263672 46.60148437 -31.66201172 44.35335937 -30.28076172 42.03710938 C-38.53076172 41.70710938 -46.78076172 41.37710938 -55.28076172 41.03710938 C-55.28076172 37.15222522 -53.6811077 34.53116841 -51.92138672 31.17382812 C-51.57573669 30.50422562 -51.23008667 29.83462311 -50.8739624 29.14472961 C-50.14040251 27.72689402 -49.40385094 26.31060288 -48.66455078 24.89575195 C-47.54230705 22.74671803 -46.43032875 20.59261913 -45.31982422 18.4375 C-44.60428639 17.05762725 -43.88815894 15.67806007 -43.17138672 14.29882812 C-42.84205139 13.66111984 -42.51271606 13.02341156 -42.17340088 12.36637878 C-36.43777765 1.42478135 -36.43777765 1.42478135 -32.97387695 0.26416016 C-31.66978882 0.24844971 -31.66978882 0.24844971 -30.33935547 0.23242188 C-28.78764648 0.1935083 -28.78764648 0.1935083 -27.20458984 0.15380859 C-26.05410156 0.15654785 -24.90361328 0.15928711 -23.71826172 0.16210938 C-21.89391602 0.13334717 -21.89391602 0.13334717 -20.03271484 0.10400391 C-16.34804334 0.05075082 -12.66419948 0.04356417 -8.97918701 0.04174805 C-5.9860334 0.03660273 -2.9930963 0.01915582 0 0 Z " fill="#0149AB" transform="translate(189.28076171875,276.962890625)"/>
<path d="M0 0 C2.28495789 0.13195801 2.28495789 0.13195801 4.09355164 2.15148926 C4.6310907 3.07316895 5.16862976 3.99484863 5.72245789 4.94445801 C6.32445007 5.96281738 6.92644226 6.98117676 7.54667664 8.03039551 C8.12030945 9.05391113 8.69394226 10.07742676 9.28495789 11.13195801 C9.7451532 11.94922363 10.20534851 12.76648926 10.67948914 13.60852051 C11.61943077 15.31504278 12.54560409 17.02919307 13.46073914 18.74914551 C14.9906114 21.58612491 16.55541779 24.3960085 18.14042664 27.20227051 C18.64670593 28.10469482 19.15298523 29.00711914 19.67460632 29.93688965 C20.69925377 31.76234594 21.72977914 33.58451641 22.7664032 35.40319824 C23.23529968 36.24310303 23.70419617 37.08300781 24.18730164 37.94836426 C24.61518982 38.70576904 25.043078 39.46317383 25.4839325 40.24353027 C25.74827087 40.86671143 26.01260925 41.48989258 26.28495789 42.13195801 C25.78995789 43.12195801 25.78995789 43.12195801 25.28495789 44.13195801 C17.6679508 44.25863237 10.05121483 44.34625697 2.43339539 44.40661621 C-0.15850475 44.43177556 -2.75033383 44.46590652 -5.34199524 44.50915527 C-9.06548073 44.56974032 -12.78802906 44.59815447 -16.51191711 44.62023926 C-18.25272552 44.6589489 -18.25272552 44.6589489 -20.02870178 44.69844055 C-28.06122328 44.70124724 -28.06122328 44.70124724 -31.47773743 41.72644043 C-32.71504211 39.13195801 -32.71504211 39.13195801 -32.71504211 37.13195801 C-33.37504211 37.13195801 -34.03504211 37.13195801 -34.71504211 37.13195801 C-35.02957336 36.47969238 -35.34410461 35.82742676 -35.66816711 35.15539551 C-38.08156714 30.22682557 -40.64705386 25.68745572 -43.71504211 21.13195801 C-45.26226783 18.38133452 -46.76151305 15.60788526 -48.25410461 12.82727051 C-49.49080679 10.5456542 -50.77161051 8.30424632 -52.09004211 6.06945801 C-53.71504211 3.13195801 -53.71504211 3.13195801 -53.71504211 1.13195801 C-46.54342489 0.98885122 -39.37179267 0.84651453 -32.20014954 0.70471191 C-29.76069289 0.65638657 -27.32123973 0.60788528 -24.88179016 0.5592041 C-21.37439358 0.48924178 -17.86698495 0.4199133 -14.35957336 0.35070801 C-13.26981705 0.32883423 -12.18006073 0.30696045 -11.05728149 0.28442383 C-10.0366008 0.26440308 -9.0159201 0.24438232 -7.96430969 0.22375488 C-7.06940323 0.20598999 -6.17449677 0.1882251 -5.25247192 0.16992188 C-3.50092803 0.14371607 -1.74967459 0.08503867 0 0 Z " fill="#020204" transform="translate(314.7150421142578,276.8680419921875)"/>
<path d="M0 0 C2 2 2 2 2.24050903 4.97390747 C2.2338472 6.88585403 2.2338472 6.88585403 2.22705078 8.83642578 C2.22734283 9.53897491 2.22763489 10.24152405 2.22793579 10.96536255 C2.22654023 13.29213731 2.21096872 15.61859354 2.1953125 17.9453125 C2.19158317 19.55671005 2.18873582 21.16810987 2.18673706 22.7795105 C2.17909431 27.02433514 2.15944039 31.2690233 2.1373291 35.51379395 C2.11688443 39.8438126 2.1077383 44.17385326 2.09765625 48.50390625 C2.07619504 57.00266686 2.04205145 65.50131646 2 74 C-12.65014593 74.04036162 -12.65014593 74.04036162 -19.7109375 73.78125 C-21.60585937 73.71357422 -21.60585937 73.71357422 -23.5390625 73.64453125 C-24.80492187 73.59683594 -26.07078125 73.54914063 -27.375 73.5 C-28.70832498 73.45159225 -30.04165832 73.40341426 -31.375 73.35546875 C-34.58342236 73.23922156 -37.79174272 73.1207029 -41 73 C-41 69.627323 -40.33100915 68.40727572 -38.7265625 65.4921875 C-38.23712158 64.59741699 -37.74768066 63.70264648 -37.2434082 62.78076172 C-36.7093335 61.82186035 -36.17525879 60.86295898 -35.625 59.875 C-35.07481201 58.87871582 -34.52462402 57.88243164 -33.95776367 56.85595703 C-24.93122071 40.58337792 -15.23225456 24.71543848 -5.5625 8.8203125 C-4.60537109 7.24660889 -4.60537109 7.24660889 -3.62890625 5.64111328 C-2.45522054 3.7380959 -1.24022495 1.86033743 0 0 Z " fill="#0249AC" transform="translate(248,166)"/>
<path d="M0 0 C0 0.66 0 1.32 0 2 C-0.556875 2.515625 -1.11375 3.03125 -1.6875 3.5625 C-6.33294488 8.45905001 -9.06463513 14.97477737 -12 21 C-12.66 21 -13.32 21 -14 21 C-14.226875 21.825 -14.45375 22.65 -14.6875 23.5 C-16.04115222 27.10973924 -17.75660984 29.97507771 -19.87890625 33.16796875 C-21.16189886 35.10995074 -21.16189886 35.10995074 -22 38 C-22.66 38 -23.32 38 -24 38 C-24.33 38.99 -24.66 39.98 -25 41 C-33.58 41 -42.16 41 -51 41 C-51 37.11511585 -49.40034598 34.49405904 -47.640625 31.13671875 C-47.29497498 30.46711624 -46.94932495 29.79751373 -46.59320068 29.10762024 C-45.85964079 27.68978465 -45.12308922 26.27349351 -44.38378906 24.85864258 C-43.26154533 22.70960865 -42.14956703 20.55550976 -41.0390625 18.40039062 C-40.32352467 17.02051788 -39.60739722 15.64095069 -38.890625 14.26171875 C-38.56128967 13.62401047 -38.23195435 12.98630219 -37.89263916 12.32926941 C-36.95421921 10.53908674 -35.97768525 8.76904424 -35 7 C-34.39720215 5.87682373 -33.7944043 4.75364746 -33.17333984 3.59643555 C-31 1 -31 1 -27.91552734 0.22705078 C-26.7342627 0.21657715 -25.55299805 0.20610352 -24.3359375 0.1953125 C-23.04945313 0.16953125 -21.76296875 0.14375 -20.4375 0.1171875 C-19.08333225 0.11915196 -17.7291653 0.12176347 -16.375 0.125 C-15.01298222 0.10686567 -13.65099722 0.08606062 -12.2890625 0.0625 C-8.19221987 0.00491386 -4.09709667 0 0 0 Z " fill="#030305" transform="translate(185,277)"/>
<path d="M0 0 C2 2 2 2 2.24050903 4.97390747 C2.2338472 6.88585403 2.2338472 6.88585403 2.22705078 8.83642578 C2.22734283 9.53897491 2.22763489 10.24152405 2.22793579 10.96536255 C2.22654023 13.29213731 2.21096872 15.61859354 2.1953125 17.9453125 C2.19158317 19.55671005 2.18873582 21.16810987 2.18673706 22.7795105 C2.17909431 27.02433514 2.15944039 31.2690233 2.1373291 35.51379395 C2.11688443 39.8438126 2.1077383 44.17385326 2.09765625 48.50390625 C2.07619504 57.00266686 2.04205145 65.50131646 2 74 C-12.65014593 74.04036162 -12.65014593 74.04036162 -19.7109375 73.78125 C-21.60585937 73.71357422 -21.60585937 73.71357422 -23.5390625 73.64453125 C-24.80492187 73.59683594 -26.07078125 73.54914063 -27.375 73.5 C-28.70832498 73.45159225 -30.04165832 73.40341426 -31.375 73.35546875 C-34.58342236 73.23922156 -37.79174272 73.1207029 -41 73 C-41 69.627323 -40.33100915 68.40727572 -38.7265625 65.4921875 C-38.23712158 64.59741699 -37.74768066 63.70264648 -37.2434082 62.78076172 C-36.7093335 61.82186035 -36.17525879 60.86295898 -35.625 59.875 C-35.07481201 58.87871582 -34.52462402 57.88243164 -33.95776367 56.85595703 C-24.93122071 40.58337792 -15.23225456 24.71543848 -5.5625 8.8203125 C-4.60537109 7.24660889 -4.60537109 7.24660889 -3.62890625 5.64111328 C-2.45522054 3.7380959 -1.24022495 1.86033743 0 0 Z M0 4 C-3.51852645 8.74052965 -6.41198603 13.7007333 -9 19 C-9.53625 19.70125 -10.0725 20.4025 -10.625 21.125 C-12.51481891 23.70202579 -12.84337415 26.0863492 -13.375 29.1875 C-13.684375 30.0846875 -13.684375 30.0846875 -14 31 C-14.99 31.33 -15.98 31.66 -17 32 C-20.11080256 35.84804479 -22.53218278 40.00994968 -23 45 C-23.66 45 -24.32 45 -25 45 C-25.804375 46.7015625 -25.804375 46.7015625 -26.625 48.4375 C-28.62966977 52.46105706 -31.01083677 56.10770014 -33.53515625 59.8203125 C-35.54731551 62.81440548 -37.35939947 65.78442296 -39 69 C-38.67 69.66 -38.34 70.32 -38 71 C-33.71331312 71.04975174 -29.42678303 71.0858847 -25.13989258 71.10986328 C-23.68413359 71.1198685 -22.22839443 71.13347696 -20.77270508 71.15087891 C-18.6700346 71.17537044 -16.56763176 71.18653794 -14.46484375 71.1953125 C-13.202771 71.20578613 -11.94069824 71.21625977 -10.64038086 71.22705078 C-6.74102471 70.9838477 -3.69671244 70.20377453 0 69 C1.10562518 61.89951444 1.12838124 54.92639788 1.09765625 47.75 C1.0962413 46.49614502 1.09482635 45.24229004 1.09336853 43.95043945 C1.08874081 40.64282033 1.07978103 37.33525137 1.06866455 34.02764893 C1.05837176 30.64213673 1.05385417 27.25661714 1.04882812 23.87109375 C1.03783447 17.24737646 1.02112293 10.62369232 1 4 C0.67 4 0.34 4 0 4 Z " fill="#14448D" transform="translate(248,166)"/>
<path d="M0 0 C6.88679212 -0.02537091 13.77357217 -0.04287571 20.66040039 -0.05493164 C23.00285289 -0.05995801 25.34530225 -0.06678008 27.68774414 -0.07543945 C31.05616022 -0.08757918 34.42453478 -0.09324531 37.79296875 -0.09765625 C38.83897751 -0.10281754 39.88498627 -0.10797882 40.96269226 -0.11329651 C42.43365105 -0.11340981 42.43365105 -0.11340981 43.93432617 -0.11352539 C44.79370285 -0.115746 45.65307953 -0.11796661 46.53849792 -0.12025452 C49.11099661 0.00542264 51.49067271 0.43351574 54 1 C52.44250446 5.23895693 50.36106586 9.09131357 48.125 13 C47.54105469 14.02855103 47.54105469 14.02855103 46.9453125 15.07788086 C46.09165687 16.57994797 45.23644367 18.08113068 44.37988281 19.58154297 C42.42560476 23.00671607 40.48200386 26.43793301 38.53662109 29.86816406 C37.00631959 32.55141912 35.45673919 35.22290395 33.90625 37.89453125 C32.05456238 41.09942158 30.30768601 44.32452873 28.65625 47.63671875 C28.28886719 48.33659912 27.92148438 49.03647949 27.54296875 49.75756836 C26.8739415 51.03564219 26.23763868 52.33170237 25.64453125 53.64672852 C24.71875 55.359375 24.71875 55.359375 22 58 C18.0387614 59.09722567 14.08981186 58.99233926 10 59 C8.33202483 59.0188076 6.66405643 59.03822087 4.99609375 59.05810547 C-0.75293702 59.10850298 -6.50088846 59.08752077 -12.25 59.0625 C-14.26692597 59.05747471 -16.28385316 59.05291362 -18.30078125 59.04882812 C-23.20055122 59.03790468 -28.10026196 59.02069684 -33 59 C-34 56 -34 56 -32.5625 52.8125 C-32.046875 51.884375 -31.53125 50.95625 -31 50 C-30.34 50.33 -29.68 50.66 -29 51 C-29 52.32 -29 53.64 -29 55 C-27.39318359 54.98259766 -27.39318359 54.98259766 -25.75390625 54.96484375 C-24.35677257 54.95546701 -22.95963701 54.94636669 -21.5625 54.9375 C-20.85544922 54.92912109 -20.14839844 54.92074219 -19.41992188 54.91210938 C-17.61306441 54.90346412 -15.80612397 54.94779989 -14 55 C-13.505 55.495 -13.505 55.495 -13 56 C-10.55391002 56.15980437 -8.13268942 56.25929447 -5.68359375 56.31640625 C-4.95253922 56.33718735 -4.22148468 56.35796844 -3.46827698 56.37937927 C-1.12478344 56.44495024 1.21882539 56.50379432 3.5625 56.5625 C5.14779855 56.60567808 6.73308529 56.64929213 8.31835938 56.69335938 C12.21212037 56.8006392 16.10599772 56.9018849 20 57 C20.46273315 56.06994141 20.46273315 56.06994141 20.93481445 55.12109375 C24.43007536 48.16101427 28.46133055 41.48167207 32.44921875 34.796875 C33.86549357 32.24258591 34.986813 29.73510578 36 27 C36.66 27 37.32 27 38 27 C38.0825 26.05125 38.165 25.1025 38.25 24.125 C38.62125 22.578125 38.62125 22.578125 39 21 C41 19.875 41 19.875 43 19 C43.35394138 17.67198856 43.68325425 16.33737094 44 15 C44.76933642 13.47741085 45.58486845 11.97755734 46.4375 10.5 C48.04944437 7.68992384 49.54829213 4.90341574 51 2 C34.17 2 17.34 2 0 2 C0 1.34 0 0.68 0 0 Z " fill="#103E7C" transform="translate(185,277)"/>
<path d="M0 0 C1.46111143 2.92222286 1.12733328 5.4937959 1.12939453 8.75708008 C1.13114685 9.45159775 1.13289917 10.14611542 1.13470459 10.86167908 C1.13911596 13.16432168 1.13618667 15.46688782 1.1328125 17.76953125 C1.13348597 19.36895258 1.13445637 20.96837382 1.13571167 22.5677948 C1.13718786 25.92451957 1.13503745 29.28121777 1.13037109 32.63793945 C1.12468765 36.93533615 1.1279445 41.23267021 1.13394356 45.53006458 C1.13756307 48.83550994 1.13640395 52.14094053 1.13381577 55.44638634 C1.13314963 57.03038223 1.13396397 58.61437948 1.13629532 60.19837379 C1.1388431 62.41719718 1.13495071 64.63592038 1.12939453 66.85473633 C1.12859894 68.11667313 1.12780334 69.37860992 1.12698364 70.67878723 C1.01579384 73.58691773 0.67617888 76.17738631 0 79 C-0.66 79 -1.32 79 -2 79 C-2.20019141 69.29058508 -2.38391287 59.58101179 -2.54658794 49.87089157 C-2.62264201 45.36213204 -2.70437536 40.85362441 -2.79907227 36.34521484 C-2.89024416 31.99469049 -2.96651797 27.644137 -3.03244972 23.29315948 C-3.06023034 21.63287865 -3.09338677 19.9726788 -3.13199425 18.31261444 C-3.18513988 15.98801733 -3.21919528 13.66386691 -3.2487793 11.33886719 C-3.26891586 10.6519429 -3.28905243 9.96501862 -3.30979919 9.25727844 C-3.33713778 5.20086825 -2.84239783 2.95129043 0 0 Z " fill="#03153B" transform="translate(252,160)"/>
<path d="M0 0 C0 3.86695678 -1.41909971 6.5088452 -3 10 C-3.66 10 -4.32 10 -5 10 C-5.2475 11.051875 -5.495 12.10375 -5.75 13.1875 C-6.70451586 17.24419242 -8.03323066 18.29153833 -11 22 C-13.64 26.62 -16.28 31.24 -19 36 C1.295 36.495 1.295 36.495 22 37 C22 37.66 22 38.32 22 39 C12.19332887 39.0683524 2.42519524 38.86925379 -7.375 38.5 C-8.70832498 38.45159225 -10.04165832 38.40341426 -11.375 38.35546875 C-14.58342236 38.23922156 -17.79174272 38.1207029 -21 38 C-21 34.57310258 -20.26001254 33.28386655 -18.62109375 30.31640625 C-18.11497559 29.3936792 -17.60885742 28.47095215 -17.08740234 27.52026367 C-16.27070068 26.05617065 -16.27070068 26.05617065 -15.4375 24.5625 C-14.8904541 23.57290283 -14.3434082 22.58330566 -13.77978516 21.5637207 C-12.1946488 18.70452104 -10.59944828 15.85121304 -9 13 C-8.39454346 11.9157373 -8.39454346 11.9157373 -7.77685547 10.80957031 C-2.39002952 1.19501476 -2.39002952 1.19501476 0 0 Z " fill="#0C3474" transform="translate(228,201)"/>
<path d="M0 0 C0.66 0.33 1.32 0.66 2 1 C2 2.32 2 3.64 2 5 C3.60681641 4.98259766 3.60681641 4.98259766 5.24609375 4.96484375 C6.64322743 4.95546701 8.04036299 4.94636669 9.4375 4.9375 C10.14455078 4.92912109 10.85160156 4.92074219 11.58007812 4.91210938 C13.38693559 4.90346412 15.19387603 4.94779989 17 5 C17.33 5.33 17.66 5.66 18 6 C20.52094076 6.08847743 23.01430893 6.11527301 25.53515625 6.09765625 C26.28840683 6.0962413 27.04165741 6.09482635 27.81773376 6.09336853 C30.2326956 6.08775376 32.64756601 6.07519883 35.0625 6.0625 C36.69596221 6.0574869 38.32942586 6.05292366 39.96289062 6.04882812 C43.97529585 6.03777954 47.98763241 6.02050506 52 6 C52 6.66 52 7.32 52 8 C44.81639882 8.75903074 37.74115315 9.13982973 30.51953125 9.09765625 C29.58066574 9.0962413 28.64180023 9.09482635 27.67448425 9.09336853 C24.72045496 9.08783898 21.76650579 9.07530045 18.8125 9.0625 C16.79101673 9.05747587 14.76953226 9.05291458 12.74804688 9.04882812 C7.8320011 9.03789277 2.91601406 9.02067824 -2 9 C-3 6 -3 6 -1.5625 2.8125 C-1.046875 1.884375 -0.53125 0.95625 0 0 Z " fill="#0B3389" transform="translate(154,327)"/>
<path d="M0 0 C0.33 0 0.66 0 1 0 C1.02688151 1.64574566 1.04634123 3.29161413 1.0625 4.9375 C1.07410156 5.85402344 1.08570313 6.77054688 1.09765625 7.71484375 C1 10 1 10 0 11 C-2.95705321 11.08868299 -5.89065056 11.11520296 -8.84765625 11.09765625 C-10.17729652 11.09553383 -10.17729652 11.09553383 -11.53379822 11.09336853 C-14.37673254 11.08775215 -17.21958931 11.07519691 -20.0625 11.0625 C-21.98502491 11.05748711 -23.90755104 11.05292384 -25.83007812 11.04882812 C-30.55341549 11.03777741 -35.27669458 11.02050183 -40 11 C-36.45902937 8.80146441 -33.63057912 8.77950578 -29.51171875 8.83984375 C-27.61583008 8.8562793 -27.61583008 8.8562793 -25.68164062 8.87304688 C-24.36357422 8.89431641 -23.04550781 8.91558594 -21.6875 8.9375 C-19.08729779 8.97213516 -16.48703031 9.00222635 -13.88671875 9.02734375 C-12.73389404 9.04531006 -11.58106934 9.06327637 -10.39331055 9.08178711 C-6.85829601 8.99658459 -3.48766976 8.56616034 0 8 C0 5.36 0 2.72 0 0 Z " fill="#0A419A" transform="translate(248,227)"/>
<path d="M0 0 C0.66 0.33 1.32 0.66 2 1 C1.360625 1.928125 0.72125 2.85625 0.0625 3.8125 C-2.08622093 6.84219943 -2.08622093 6.84219943 -3 10 C-3.99 10.495 -3.99 10.495 -5 11 C-5.40729228 13.32156597 -5.74438677 15.6568787 -6 18 C-6.99 18.33 -7.98 18.66 -9 19 C-10.22520264 22.00847418 -10.22520264 22.00847418 -11 25 C-11.99 25 -12.98 25 -14 25 C-13.34 23.02 -12.68 21.04 -12 19 C-11.34 19 -10.68 19 -10 19 C-9.86464844 18.46632813 -9.72929687 17.93265625 -9.58984375 17.3828125 C-7.63887428 10.63035529 -4.23574196 5.55868602 0 0 Z " fill="#10418B" transform="translate(183,279)"/>
<path d="M0 0 C0.99 0.33 1.98 0.66 3 1 C2.60167969 1.72445313 2.20335937 2.44890625 1.79296875 3.1953125 C-0.89005132 8.09133453 -3.55744288 12.97918814 -6 18 C-6.66 18 -7.32 18 -8 18 C-8.66 19.98 -9.32 21.96 -10 24 C-10.33 24 -10.66 24 -11 24 C-10.67 21.69 -10.34 19.38 -10 17 C-9.34 17 -8.68 17 -8 17 C-7.938125 16.13375 -7.87625 15.2675 -7.8125 14.375 C-6.80516821 10.1906987 -4.80382024 8.2141354 -2 5 C-0.6950516 2.2875382 -0.6950516 2.2875382 0 0 Z " fill="#000B2B" transform="translate(179,280)"/>
<path d="M0 0 C0.99 0.33 1.98 0.66 3 1 C-0.37931034 9.68965517 -0.37931034 9.68965517 -3 11 C-3.99 12.485 -3.99 12.485 -5 14 C-5.99 14.33 -6.98 14.66 -8 15 C-6.62712658 11.30123909 -4.93644547 8.0485524 -2.875 4.6875 C-2.33617187 3.80449219 -1.79734375 2.92148438 -1.2421875 2.01171875 C-0.83226562 1.34785156 -0.42234375 0.68398437 0 0 Z " fill="#1B468D" transform="translate(235,187)"/>
<path d="M0 0 C0.99 0 1.98 0 3 0 C3 0.66 3 1.32 3 2 C4.32 1.67 5.64 1.34 7 1 C5.50902342 4.7952131 3.24299151 6.61042731 0 9 C0 6.03 0 3.06 0 0 Z " fill="#100B0F" transform="translate(320,226)"/>
<path d="M0 0 C0.66 0.33 1.32 0.66 2 1 C1.64950425 4.24208567 1.43778819 5.61527704 -1.0625 7.8125 C-1.701875 8.204375 -2.34125 8.59625 -3 9 C-3.66 7.68 -4.32 6.36 -5 5 C-4.360625 4.731875 -3.72125 4.46375 -3.0625 4.1875 C-0.66868314 3.11332248 -0.66868314 3.11332248 0 0 Z " fill="#0B0709" transform="translate(357,187)"/>
<path d="M0 0 C2.97 0.495 2.97 0.495 6 1 C4.66511872 4.59391114 3.03977277 7.75490696 1 11 C0.3125 9.3125 0.3125 9.3125 0 7 C1.4375 4.25 1.4375 4.25 3 2 C2.01 2 1.02 2 0 2 C0 1.34 0 0.68 0 0 Z " fill="#0F3672" transform="translate(233,277)"/>
<path d="M0 0 C1.125 3.75 1.125 3.75 0 6 C1.32 6.33 2.64 6.66 4 7 C4 7.66 4 8.32 4 9 C2.02 9 0.04 9 -2 9 C-3 6 -3 6 -1.5625 2.8125 C-1.046875 1.884375 -0.53125 0.95625 0 0 Z " fill="#0F326A" transform="translate(154,327)"/>
<path d="M0 0 C0.66 1.32 1.32 2.64 2 4 C1.1028125 4.86625 1.1028125 4.86625 0.1875 5.75 C-1.7482684 7.74107607 -3.38909283 9.74472997 -5 12 C-4.52389341 7.00088076 -2.96837781 4.02167317 0 0 Z " fill="#193C86" transform="translate(248,166)"/>
<path d="M0 0 C0.99 0.33 1.98 0.66 3 1 C2.7834375 1.928125 2.7834375 1.928125 2.5625 2.875 C1.77943337 7.22537017 1.40153341 11.60021907 1 16 C0.67 16 0.34 16 0 16 C0 10.72 0 5.44 0 0 Z " fill="#03030F" transform="translate(252,163)"/>
<path d="M0 0 C0.6875 1.6875 0.6875 1.6875 1 4 C-0.25 6.6875 -0.25 6.6875 -2 9 C-2.99 9.33 -3.98 9.66 -5 10 C-3.84414715 6.08788267 -2.64465038 3.1254959 0 0 Z " fill="#123A85" transform="translate(168,304)"/>
<path d="M0 0 C0.33 0.99 0.66 1.98 1 3 C0.67 3.66 0.34 4.32 0 5 C-2.64 5 -5.28 5 -8 5 C-8 4.34 -8 3.68 -8 3 C-5.36 2.67 -2.72 2.34 0 2 C0 1.34 0 0.68 0 0 Z " fill="#09439D" transform="translate(205,329)"/>
<path d="M0 0 C0.99 0.33 1.98 0.66 3 1 C2.1875 3.4375 2.1875 3.4375 1 6 C0.01 6.33 -0.98 6.66 -2 7 C-1.125 2.25 -1.125 2.25 0 0 Z " fill="#153E93" transform="translate(235,187)"/>
<path d="M0 0 C1.35439668 2.70879335 1.06501451 5.00933268 1 8 C0.01 8.495 0.01 8.495 -1 9 C-2.1875 6.75 -2.1875 6.75 -3 4 C-1.625 1.6875 -1.625 1.6875 0 0 Z " fill="#0A0D22" transform="translate(252,160)"/>
</svg>
